<?xml version="1.0" encoding="UTF-8"?><svg id="Layer_1" xmlns="http://www.w3.org/2000/svg" viewBox="0 0 1200 1158.88"><defs><style>.cls-1{fill:#0a00aa;}.cls-1,.cls-2{stroke-width:0px;}.cls-2{fill:#faa000;}</style></defs><path class="cls-2" d="M591.85,21.52C223.78,45.53-45.7,277.27,36.19,752.89c46.48,269.95,428.93,451.95,728.5,360.69,343.05-104.51,483.71-416.13,380.91-727.62C1067.41,149.04,842.55,22.4,591.85,21.52Z"/><path class="cls-1" d="M682.54,48.96c-.05,0-.1-.01-.16-.02.08.01.16.02.25.03-.03,0-.06,0-.09-.01ZM705.08,946.56c-3.8-29.57-5.23-59.53-7.24-89.26-.98-14.51-1.91-29.03-3.05-43.54-1.39-17.75-3.94-35.4-5.86-53.1-6.25-57.6-10.82-115.38-18.02-172.87-3.77-30.1-8.17-60.12-13.71-89.96-5.26-28.31-11.32-56.46-17.25-84.63-5.94-28.27-10.94-56.72-16.81-84.99-5.79-27.89-13.13-55.44-21.53-82.65-2-6.5-4.07-12.97-6.2-19.43-1.66-5.06-5-10.27-9.87-12.84-5.44-2.87-10.52-3.08-16.56-2.17-3.47.53-8.27,3.72-10.59,6.14-1.82,1.91-3.51,4.13-4.87,6.41-2.39,4.01-3.99,8.54-5.63,12.89-3.34,8.82-5.93,17.92-8.52,26.98-2.77,9.67-5.38,19.38-8.14,29.06-3.27,11.43-7.17,22.66-10.31,34.13-8.87,32.37-14.4,65.51-21.25,98.34-6.94,33.25-16.49,65.84-23.25,99.14-13.22,65.16-21.49,131.21-33.86,196.53-6.73,35.54-11.7,71.46-16.99,107.24-4.81,32.54-9.48,65.1-14.1,97.67-.21,1.48-.42,2.96-.63,4.44-.85,5.97-1.01,11.13,2.17,16.56,2.61,4.46,7.72,8.71,12.84,9.87,5.5,1.25,11.68.98,16.56-2.17,4.36-2.81,9.11-7.46,9.88-12.84,3.89-27.33,7.78-54.66,11.77-81.97,5.45-37.28,10.86-74.59,17.17-111.73,3.75-22.07,8.2-44.02,11.89-66.1,5.37-32.12,10.15-64.33,15.6-96.43,1.8-10.62,3.69-21.23,5.69-31.82.4.13.79.28,1.19.41,8.1,2.66,16.4,4.79,24.81,6.19,10.35,1.72,19.99,2.33,30.41,1.64,12.13-.8,24.19-2.22,36.22-3.92,5.48-.78,10.94-1.68,16.39-2.64.99,6.61,1.95,13.22,2.85,19.84,9.6,72.6,14.58,145.72,23.45,218.4,4.55,37.28,5.71,75.01,8.6,112.44.83,10.73,1.7,21.46,2.81,32.17.88,8.51,1.64,17.17,3.5,25.54,2.44,10.99,15.78,18.46,26.43,15.01,11.54-3.73,17.62-14.66,15.01-26.43-.4-1.83-.71-3.68-.98-5.53ZM593.05,516.67c-13.53,1.78-27.52,3.4-41.05,1.96-9.8-1.59-19.53-4.13-28.87-7.54,1.67-7.35,3.42-14.67,5.29-21.98,4.06-15.92,8.24-31.77,11.67-47.84,3.38-15.86,6.4-31.79,9.58-47.69,3.17-15.86,6.51-31.69,10.54-47.35,3.23-12.59,7.34-24.86,11.03-37.31.58-1.94,1.11-3.9,1.67-5.85,5.38,21.35,10.06,42.88,14.13,64.63,8.34,44.54,18.62,88.69,27.13,133.19.76,3.99,1.47,7.98,2.2,11.98-7.74,1.43-15.51,2.73-23.32,3.8ZM968.2,369.8c-15.09-25.85-33.39-50.13-54.31-71.55-11.25-11.52-23.37-22.99-36.6-32.23-7.31-5.11-16.89-7.42-25.57-4.83-19.48,5.82-21.46,27.81-20.53,44.84,1.11,20.31,4.52,40.52,7.34,60.64.64,4.55,1.26,9.1,1.88,13.65,1.98,14.85,3.8,29.77,5.02,44.74-8.94-18.23-17.59-36.59-26.58-54.8-3.58-7.25-7.14-14.54-11.23-21.51-3.04-5.18-6.41-10.16-9.45-15.33-11.39-19.34-22.31-38.96-33.64-58.34-6.45-11.03-12.96-22.02-19.86-32.77-5.27-8.21-10.72-17.16-17.73-23.99-11.14-10.86-32.23-6.63-35.92,9.48-2.33,10.2-.62,21.34.34,31.6,1.59,16.87,3.65,33.7,5.83,50.51,4.66,36.03,9.45,72.17,16.28,107.87,2.4,12.57,5.19,25.06,7.49,37.66,2.85,15.67,5.31,31.41,7.48,47.19,9.4,71.29,12.65,143.19,19.36,214.75,3.97,42.36,7.76,84.75,10.4,127.21.69,11.12,1.32,22.26,1.63,33.4.19,6.76.54,13.71-.31,20.44.21-1.59.43-3.18.64-4.77-.8,5.76-.86,10.82,2.23,16.09,2.61,4.46,7.72,8.71,12.84,9.87,5.5,1.25,11.68.98,16.56-2.17,4.36-2.81,9.1-7.46,9.87-12.84,1.64-11.34,1.34-22.59.89-34.01-.64-16.02-1.71-32.02-2.86-48.01-2.26-31.52-4.96-63.01-7.9-94.47-4.66-49.81-7.94-99.72-12.26-149.56-4.79-55.25-11.57-110.35-23.09-164.63-5.89-27.76-9.69-56.04-13.6-84.13-.38-2.72-.75-5.45-1.12-8.17,7.14,12.54,14.27,25.09,21.69,37.46,2.93,4.89,6.16,9.59,8.92,14.58,4.29,7.77,8.18,15.76,12.08,23.74,10.53,21.56,20.69,43.29,31.51,64.7,5.47,10.82,11.05,21.61,17.26,32.03,2.28,3.83,4.65,7.63,7.29,11.23,2.68,3.64,5.48,7.86,9.08,10.78,6.12,4.97,12.91,7.73,20.91,5.53,6.87-1.89,13.51-7.81,15.01-15.01,9.48-45.49,2.47-93.12-3.72-138.56-1.48-10.84-3.03-21.66-4.51-32.5-.66-5.02-1.29-10.05-1.83-15.08,11.33,10.86,21.82,22.61,31.5,34.88,18.79,24.73,34.04,51.84,46.31,80.35,11,26.65,19,54.33,24.82,82.57,1.83,8.88,3.38,17.82,4.68,26.8,3.54,28.84,1.92,58.04-1.77,86.83-3.79,26.57-10.52,52.52-20.67,77.37-14.26,32.9-33.8,63.16-55.58,91.56-.22.28-.44.56-.66.84-3.67,4.68-6.29,8.98-6.29,15.19,0,5.27,2.34,11.57,6.29,15.19,4.1,3.76,9.47,6.55,15.19,6.29,5.29-.24,11.77-1.92,15.19-6.29,21.13-27,40.85-55.14,56.02-85.97,12.35-25.1,22-51.52,27.79-78.9,5.55-26.24,8.12-53.11,9.29-79.88,1.25-28.49-2.95-56.83-8.92-84.64-9.98-46.48-26.39-91.75-50.4-132.88ZM741.87,322.82c-.06-.42-.11-.83-.17-1.25,0,0,0,0,0,0,.06.42.11.83.17,1.25ZM1049.49,248.62s-.04-.06-.06-.09c-.04-.05-.06-.07-.09-.12-.3-.36-.59-.72-.88-1.1-.47-.54-.04.11,1.03,1.31ZM1196.2,517.28c-7.57-66.67-24.37-132.34-52.03-193.57-26.26-58.15-63.79-111.42-109.46-155.97-45.02-43.92-98.01-79.79-155.09-106.11-59.53-27.45-122.78-45.59-187.72-54.4C659.56,2.84,627.1.34,594.46.07c-.85-.07-1.71-.09-2.59-.03-.93,0-1.85.08-2.76.21-55.27,3.79-110.45,12.02-164.02,26.28-50.7,13.5-100.26,32.51-146.41,57.54-44.31,24.03-85.69,54.15-121.57,89.6-35.96,35.53-66.63,76.82-90.2,121.54-25.49,48.37-43.34,100.69-53.79,154.32-12.08,61.99-15.32,125.47-11.77,188.46,2.05,36.32,6.31,72.51,12.09,108.41,4.48,27.83,11.15,54.89,21.73,81.07,21.91,54.27,55.3,102.77,96.39,144.35,42.35,42.85,92.3,78.48,145.54,106.51,55.82,29.39,115.86,51.29,177.52,64.64,62.56,13.55,127.26,19.03,191.14,14.16,66.52-5.08,130.87-21.46,192.36-47.18,62.01-25.94,119.8-60.08,170.92-103.88,46.02-39.43,85.69-86.72,116.26-139.06,30.05-51.46,51.57-108.22,63.25-166.64,12.03-60.19,14.56-122.1,7.64-183.07ZM350.77,96.88c2.09-.9.27-.11-.96.41.32-.14.64-.27.96-.41ZM48.9,494.96c.06-.39.11-.79.17-1.18-.14,1.18-.64,4.46-.17,1.18ZM1156.46,611.71c-.67,14.46-1.9,28.9-3.69,43.27-.06.46-.12.91-.17,1.37,0-.02.01-.04.02-.07-.01.03-.02.07-.03.1-.06.47-.12.93-.18,1.4-.06.49-.17.88-.28,1.12-.07.78-.11,1.56-.21,2.27-.55,3.72-1.13,7.44-1.75,11.15-1.2,7.16-2.55,14.3-4.03,21.41-5.86,27.99-13.96,55.51-24.26,82.2-1.25,3.24-2.54,6.47-3.85,9.69-.32.78-2.48,5.8-1.05,2.57,1.35-3.08-1.22,2.81-1.66,3.82-2.79,6.37-5.7,12.68-8.74,18.92-6.3,12.94-13.14,25.62-20.5,37.98-7.28,12.24-15.07,24.17-23.33,35.76-2.04,2.87-4.11,5.71-6.21,8.53-.98,1.32-1.97,2.64-2.97,3.95-.42.56-.85,1.11-1.27,1.66-.04.05-.07.09-.11.14-4.4,5.56-8.85,11.08-13.44,16.48-19.18,22.56-40.26,43.5-62.87,62.61-5.76,4.87-11.54,10.2-17.8,14.43.19-.13.29-.2.44-.3-.46.32-.97.69-1.41,1.02-1.59,1.2-3.18,2.4-4.78,3.59-3.21,2.39-6.45,4.74-9.71,7.06-12.63,8.98-25.61,17.45-38.9,25.41-13.88,8.32-28.1,16.08-42.58,23.3-7.17,3.57-14.4,7.01-21.7,10.32-3.69,1.67-7.39,3.31-11.11,4.92-1.93.83-5.21,2.78-1.62.7-2.05,1.18-4.63,1.92-6.82,2.81-30.46,12.37-61.84,22.9-93.86,30.42-14.71,3.46-29.57,6.29-44.52,8.52-1.83.27-3.65.53-5.48.79-.45.06-.9.12-1.34.17-3.94.5-7.89.96-11.84,1.38-7.66.81-15.35,1.47-23.04,1.98-30.62,2.03-61.39,1.7-91.97-.79-7.48-.61-14.94-1.35-22.4-2.21-1.99-.23-3.97-.47-5.96-.72-.41-.05-1.52-.19-2.48-.32-1-.14-3.2-.44-3.7-.51-2.23-.32-4.46-.65-6.68-.99-15.07-2.32-30.07-5.15-44.95-8.47-29.87-6.68-59.29-15.35-88.01-25.94-7.18-2.65-14.32-5.42-21.41-8.31-1.83-.74-3.65-1.5-5.47-2.26-.03-.01-.04-.02-.07-.03-.24-.11-.53-.23-.91-.4-3.61-1.56-7.21-3.13-10.79-4.75-13.57-6.11-26.94-12.68-40.06-19.71-25.96-13.89-50.98-29.57-74.67-47.06-2.66-1.96-6.29-3.91-8.46-6.37.3.33,3.95,3.08,1.01.77-.55-.43-1.11-.87-1.66-1.3-1.66-1.3-3.31-2.61-4.95-3.93-5.44-4.38-10.8-8.86-16.07-13.44-10.75-9.35-21.12-19.13-31.05-29.35-9.75-10.03-19.08-20.49-27.89-31.35-1.92-2.36-3.66-5.22-5.83-7.34,4.24,4.14.33.41-.69-.95-1.07-1.42-2.13-2.84-3.18-4.28-4.05-5.52-7.96-11.14-11.74-16.86-7.35-11.12-14.15-22.61-20.32-34.42-3.11-5.95-6.06-11.99-8.85-18.1-.63-1.38-1.24-2.76-1.85-4.14-.61-1.38-2.56-6.99-.39-.82-1.14-3.24-2.62-6.39-3.86-9.6-10.08-26.2-16.1-53.18-20.42-80.86-.67-4.3-1.32-8.61-1.94-12.92-.32-2.24-.63-4.48-.94-6.72-.13-.97-.26-1.94-.38-2.91-1.12-8.65-2.12-17.32-3.02-26-1.72-16.77-3.02-33.59-3.83-50.42-1.5-31.02-1.37-62.13.73-93.12.51-7.47,1.13-14.93,1.88-22.38.71-7.11,2.39-14.52,2.52-21.66.03-.25.07-.5.11-.75.23-1.61.46-3.22.71-4.83.55-3.65,1.13-7.3,1.74-10.95,1.17-6.96,2.45-13.9,3.85-20.82,5.34-26.31,12.42-52.28,21.41-77.58,2.18-6.14,4.48-12.24,6.89-18.29,1.06-2.67,2.23-5.3,3.26-7.98.1-.24.2-.47.3-.71.74-1.71,1.48-3.41,2.24-5.1,5.06-11.36,10.53-22.53,16.42-33.47,11.57-21.5,24.76-42.14,39.48-61.63.57-.76,1.15-1.51,1.72-2.26.22-.28.43-.56.65-.83,1.93-2.46,3.89-4.89,5.87-7.31,3.83-4.67,7.74-9.27,11.74-13.79,7.98-9.02,16.3-17.73,24.93-26.12,8.49-8.25,17.28-16.18,26.34-23.79,4.57-3.84,9.23-7.58,13.93-11.27,1.22-.92,2.44-1.85,3.66-2.77,2.5-1.87,5.01-3.72,7.54-5.54,19.48-14.05,39.94-26.73,61.11-38.07,10.94-5.86,22.07-11.36,33.35-16.52,2.57-1.17,5.15-2.33,7.73-3.47,1.48-.65,2.97-1.3,4.45-1.94.32-.14.64-.27.96-.41,5.73-2.21,11.36-4.66,17.09-6.86,48.57-18.67,99.29-31.47,150.67-39.51,3.25-.51,6.5-1,9.76-1.47,1.52-.22,3.05-.44,4.57-.65.13-.02.26-.04.4-.05,6.54-.58,13.07-1.65,19.61-2.37,13.4-1.46,26.83-2.62,40.28-3.5,16.53.08,33.06.66,49.55,1.83,7.9.56,15.79,1.25,23.67,2.07,3.92.41,7.84.85,11.75,1.33,1.82.22,3.64.45,5.46.68.04,0,.06,0,.09.01-.5-.07-.97-.13-1.14-.16.43.08.86.12,1.29.18,2.29.29,1.24.16.09.01.83.11,1.67.23,2.5.35,31.41,4.46,62.53,11.06,92.99,19.94,15.08,4.39,29.99,9.34,44.69,14.86,6.85,2.57,13.99,4.97,20.59,8.15-1.1-.48-3.56-1.51-.56-.22.92.4,1.84.79,2.76,1.19,1.61.7,3.21,1.4,4.81,2.11,3.65,1.62,7.28,3.28,10.9,4.98,27.54,12.92,54.08,28,79.15,45.24,6.07,4.17,12.05,8.47,17.95,12.9,1.55,1.17,3.22,2.29,4.69,3.56-.02-.01-.02-.02-.04-.04.31.25.62.51.92.74,3.08,2.43,6.13,4.89,9.16,7.39,11.53,9.53,22.64,19.56,33.29,30.07,10.86,10.71,21.22,21.92,31.05,33.59,2.39,2.83,4.74,5.7,7.07,8.58,1.09,1.35,2.17,2.7,3.24,4.06.23.29.45.59.68.9.17.2.46.55.88,1.1.09.11.18.24.28.34-.05-.05-.08-.09-.12-.14,4.65,6.11,9.16,12.33,13.51,18.64,17.59,25.5,32.75,52.66,45.33,80.96.84,1.9,1.67,3.8,2.5,5.71.08.19.14.33.2.46.1.24.22.53.37.89,1.6,3.87,3.16,7.77,4.67,11.68,2.96,7.66,5.73,15.39,8.33,23.18,5,14.99,9.47,30.16,13.4,45.47,3.91,15.22,7.29,30.58,10.1,46.04,1.34,7.37,2.55,14.77,3.62,22.18.09.6.69,5.09.67,4.81.1.83.21,1.67.25,2.01.49,3.92.94,7.84,1.35,11.77,3.11,29.64,4.06,59.51,2.67,89.29ZM1152.14,658.91c.07-.89.19-1.76.46-2.52,0-.01,0-.03,0-.04-1.04,2.78-.77,3.27-.46,2.56ZM389.83,286.64c7.66-4.85,15.54-9.35,23.67-13.34,17.26-8.46,34.34-17.48,52.02-25.03-.07.03-.13.06-.2.08,4.43-2,8.06-4.43,10.71-8.96,2.7-4.61,3.84-11.39,2.17-16.56-1.68-5.2-4.9-10.22-9.87-12.84-4.76-2.51-11.33-4.3-16.56-2.17-21.7,8.88-42.9,19.53-63.74,30.27-19.95,10.28-38.41,23.39-55.77,37.55-12.3,10.04-23.86,21.13-35.27,32.17-13.53,13.09-26.99,26.32-38.52,41.23-14.03,18.15-26.06,37.67-39.51,56.23-3.09,4.26-3.5,11.7-2.17,16.56,1.37,4.98,5.23,10.39,9.88,12.84,4.99,2.63,11.03,3.96,16.56,2.17,5.62-1.82,9.39-5.11,12.84-9.88,12.29-16.95,23.31-34.78,35.92-51.5,11.37-14.3,24.74-27.1,37.93-39.7,6.09-5.82,12.22-11.64,18.47-17.31,1.36,30.62,2.36,61.26,2.94,91.9.65,34.7.77,69.4.33,104.1-.33,25.74-.99,51.47-1.95,77.18-.6,16.01-1.37,32.02-1.99,48.04-1.59,40.81-3.26,81.73-7.89,122.33-.41,3.64-.88,7.27-1.35,10.91-2.61,18.65-5.94,37.64-12.91,55.19-1.51,3.27-3.24,6.43-5.25,9.41-.81.91-1.66,1.78-2.56,2.6-.09.05-.18.09-.27.14-.03,0-.06,0-.09,0-.91-.23-1.82-.51-2.71-.81-6.33-2.96-12.23-6.79-17.82-10.97-12.65-10.12-23.94-21.88-34.01-34.56-11.4-15.15-21.05-31.55-28.44-49.03.72,1.71,1.44,3.42,2.17,5.13-2.55-6.06-5.25-12.06-7.86-18.1-7.97-19.35-13.58-39.48-16.63-60.19-1.28-10.68-1.95-21.41-2.01-32.17-.06-11.24-9.84-22.01-21.49-21.49-11.59.52-21.56,9.44-21.49,21.49.13,22.53,2.71,45.26,8.08,67.17,3.84,15.68,9.46,30.67,15.81,45.49,2.01,4.7,4.18,9.33,6.18,14.03-.72-1.71-1.44-3.42-2.17-5.13,12.87,30.54,30.77,58.41,54.11,82.08,9.28,9.41,19.49,18.04,30.38,25.53,8,5.5,17.14,10.68,26.62,13.04,11.08,2.76,22.3,1.38,32.37-3.98,8.83-4.7,15.86-13.05,20.86-21.54,11.79-20.02,16.4-44.26,19.85-66.93,8.44-55.44,9.83-111.63,12.26-167.57,1.72-39.46,2.93-78.94,3.3-118.44.61-64.83-.76-129.67-3.8-194.42-.35-7.41-.74-14.82-1.13-22.23Z"/></svg>